<?xml version="1.0" encoding="utf-8"?>
<!-- Generator: Adobe Illustrator 21.0.0, SVG Export Plug-In . SVG Version: 6.00 Build 0)  -->
<svg version="1.1" id="Layer_1" xmlns="http://www.w3.org/2000/svg" xmlns:xlink="http://www.w3.org/1999/xlink" x="0px" y="0px"
	 viewBox="0 0 160 160" style="enable-background:new 0 0 160 160;" xml:space="preserve">
<style type="text/css">
	.st0{fill:#CACACA;}
</style>
<g>
	<path class="st0" d="M37.9,114.6c0-1.4-1.2-2.6-2.6-2.6c-1.4,0-2.6,1.2-2.6,2.6v5.2c0,1.4,1.2,2.6,2.6,2.6c1.4,0,2.6-1.2,2.6-2.6
		V114.6z M37.9,114.6"/>
	<path class="st0" d="M37.9,83.1c0-1.4-1.2-2.6-2.6-2.6c-1.4,0-2.6,1.2-2.6,2.6v5.2c0,1.4,1.2,2.6,2.6,2.6c1.4,0,2.6-1.2,2.6-2.6
		V83.1z M37.9,83.1"/>
	<path class="st0" d="M27.5,83.1c0-1.4-1.2-2.6-2.6-2.6c-1.4,0-2.6,1.2-2.6,2.6v5.2c0,1.4,1.2,2.6,2.6,2.6c1.4,0,2.6-1.2,2.6-2.6
		V83.1z M27.5,83.1"/>
	<path class="st0" d="M35.3,127.6c-1.4,0-2.6,1.2-2.6,2.6v5.2c0,1.4,1.2,2.6,2.6,2.6c1.4,0,2.6-1.2,2.6-2.6v-5.2
		C37.9,128.8,36.8,127.6,35.3,127.6L35.3,127.6z M35.3,127.6"/>
	<path class="st0" d="M37.9,98.8c0-1.4-1.2-2.6-2.6-2.6c-1.4,0-2.6,1.2-2.6,2.6v5.2c0,1.4,1.2,2.6,2.6,2.6c1.4,0,2.6-1.2,2.6-2.6
		V98.8z M37.9,98.8"/>
	<path class="st0" d="M27.5,98.8c0-1.4-1.2-2.6-2.6-2.6c-1.4,0-2.6,1.2-2.6,2.6v5.2c0,1.4,1.2,2.6,2.6,2.6c1.4,0,2.6-1.2,2.6-2.6
		V98.8z M27.5,98.8"/>
	<path class="st0" d="M24.8,127.6c-1.4,0-2.6,1.2-2.6,2.6v5.2c0,1.4,1.2,2.6,2.6,2.6c1.4,0,2.6-1.2,2.6-2.6v-5.2
		C27.5,128.8,26.3,127.6,24.8,127.6L24.8,127.6z M24.8,127.6"/>
	<path class="st0" d="M27.5,114.6c0-1.4-1.2-2.6-2.6-2.6c-1.4,0-2.6,1.2-2.6,2.6v5.2c0,1.4,1.2,2.6,2.6,2.6c1.4,0,2.6-1.2,2.6-2.6
		V114.6z M27.5,114.6"/>
	<path class="st0" d="M37.9,67.4c0-1.4-1.2-2.6-2.6-2.6c-1.4,0-2.6,1.2-2.6,2.6v5.2c0,1.4,1.2,2.6,2.6,2.6c1.4,0,2.6-1.2,2.6-2.6
		V67.4z M37.9,67.4"/>
	<path class="st0" d="M140.1,146.7c0.3,1.1,1.4,1.9,2.5,1.9c0.3,0,0.5,0,0.8-0.1c1.4-0.4,2.2-1.9,1.8-3.3
		c-0.1-0.3-7.7-26.3-7.7-67.3V51.7c0-1.4-1.2-2.6-2.6-2.6H77.2c-1.4,0-2.6,1.2-2.6,2.6v15.7c0,1.4,1.2,2.6,2.6,2.6h47.1
		c1.4,0,2.6-1.2,2.6-2.6c0-1.4-1.2-2.6-2.6-2.6H79.8V54.4h52.3v23.6C132.1,119.7,139.8,145.6,140.1,146.7L140.1,146.7z M140.1,146.7
		"/>
	<path class="st0" d="M126.2,33.8c1.1-1,1.1-2.6,0.2-3.7c-1-1.1-2.6-1.1-3.7-0.2c-2.4,2.2-5.6,3.4-8.8,3.4c-1.4,0-2.6,1.2-2.6,2.6
		c0,1.4,1.2,2.6,2.6,2.6C118.4,38.7,122.8,36.9,126.2,33.8L126.2,33.8z M126.2,33.8"/>
	<path class="st0" d="M140.1,7.3c1.4,0,2.6-1.2,2.6-2.6c0-1.4-1.2-2.6-2.6-2.6h0c-1.4,0-2.6,1.2-2.6,2.6
		C137.4,6.1,138.6,7.3,140.1,7.3L140.1,7.3z M140.1,7.3"/>
	<path class="st0" d="M72,17.7c1.4,0,2.6-1.2,2.6-2.6c0-1.4-1.2-2.6-2.6-2.6h0c-1.4,0-2.6,1.2-2.6,2.6C69.4,16.6,70.6,17.7,72,17.7
		L72,17.7z M72,17.7"/>
	<path class="st0" d="M37.9,41.3V36c0-1.4-1.2-2.6-2.6-2.6c-1.4,0-2.6,1.2-2.6,2.6v5.2c0,1.4,1.2,2.6,2.6,2.6
		C36.8,43.9,37.9,42.7,37.9,41.3L37.9,41.3z M37.9,41.3"/>
	<path class="st0" d="M3.9,148.6h65.4c1.2,0,2.2-0.8,2.5-1.9c0.3-1.1,8-27,8-68.8c0-1-0.6-1.9-1.4-2.3l-19.5-9.7V15.1
		c0-1.4-1.2-2.6-2.6-2.6c-1.4,0-2.6,1.2-2.6,2.6v3.2l-29.4,7.4c-1.2,0.3-2,1.3-2,2.5v13.1c0,1.4,1.2,2.6,2.6,2.6
		c1.4,0,2.6-1.2,2.6-2.6v-11l26.2-6.5v43.8c0,1,0.6,1.9,1.4,2.3l19.5,9.7c-0.2,33.9-5.5,57.3-7.2,63.8H6.5V49.9L43.2,59v76.5
		c0,1.4,1.2,2.6,2.6,2.6c1.4,0,2.6-1.2,2.6-2.6V57c0-1.2-0.8-2.2-2-2.5L4.5,44c-0.8-0.2-1.6,0-2.2,0.5c-0.6,0.5-1,1.3-1,2.1V146
		C1.3,147.4,2.5,148.6,3.9,148.6L3.9,148.6z M3.9,148.6"/>
	<path class="st0" d="M48.4,41.3V36c0-1.4-1.2-2.6-2.6-2.6c-1.4,0-2.6,1.2-2.6,2.6v5.2c0,1.4,1.2,2.6,2.6,2.6
		C47.2,43.9,48.4,42.7,48.4,41.3L48.4,41.3z M48.4,41.3"/>
	<path class="st0" d="M74.6,30.8c0,7.2,5.9,13.1,13.1,13.1c7.2,0,13.1-5.9,13.1-13.1c0-1.4-1.2-2.6-2.6-2.6c-1.4,0-2.6,1.2-2.6,2.6
		c0,4.3-3.5,7.9-7.9,7.9c-4.3,0-7.9-3.5-7.9-7.9c0-3.7,2.6-7,6.3-7.7c0.8-0.2,1.4-0.6,1.8-1.3c0.4-0.7,0.4-1.5,0.1-2.2
		c-0.2-0.6-0.4-1.3-0.4-1.9c0-2.9,2.3-5.2,5.2-5.2c1.8,0,3.5,1,4.5,2.6c0.5,0.8,1.4,1.3,2.4,1.3c1,0,1.8-0.6,2.2-1.5
		c2.1-4.6,6.8-7.6,11.8-7.6c7.2,0,13.1,5.9,13.1,13.1c0,0.4,0,0.8-0.1,1.2c-0.1,1,0.4,1.9,1.2,2.5c0.8,0.5,1.9,0.5,2.7,0
		c1.3-0.7,2.6-1.1,4-1.1c4.3,0,7.9,3.5,7.9,7.9c0,4.3-3.5,7.9-7.9,7.9c-1.4,0-2.6,1.2-2.6,2.6c0,1.4,1.2,2.6,2.6,2.6
		c7.2,0,13.1-5.9,13.1-13.1c0-7.2-5.9-13.1-13.1-13.1c-0.9,0-1.9,0.1-2.8,0.3c-1.1-9-8.9-16-18.2-16c-5.8,0-11.2,2.8-14.6,7.3
		c-1.8-1.4-4-2.1-6.3-2.1c-5.8,0-10.5,4.7-10.5,10.5c0,0.4,0,0.7,0.1,1.1C77.8,20.8,74.6,25.5,74.6,30.8L74.6,30.8z M74.6,30.8"/>
	<path class="st0" d="M64.1,117.2c0,1.4,1.2,2.6,2.6,2.6c1.4,0,2.6-1.2,2.6-2.6v-2.6c0-1.4-1.2-2.6-2.6-2.6c-1.4,0-2.6,1.2-2.6,2.6
		V117.2z M64.1,117.2"/>
	<path class="st0" d="M66.7,91c1.4,0,2.6-1.2,2.6-2.6v-5.2c0-1.4-1.2-2.6-2.6-2.6c-1.4,0-2.6,1.2-2.6,2.6v5.2
		C64.1,89.8,65.3,91,66.7,91L66.7,91z M66.7,91"/>
	<path class="st0" d="M53.6,135.5c0,1.4,1.2,2.6,2.6,2.6c1.4,0,2.6-1.2,2.6-2.6v-5.2c0-1.4-1.2-2.6-2.6-2.6c-1.4,0-2.6,1.2-2.6,2.6
		V135.5z M53.6,135.5"/>
	<path class="st0" d="M64.1,104.1c0,1.4,1.2,2.6,2.6,2.6c1.4,0,2.6-1.2,2.6-2.6v-5.2c0-1.4-1.2-2.6-2.6-2.6c-1.4,0-2.6,1.2-2.6,2.6
		V104.1z M64.1,104.1"/>
	<path class="st0" d="M40.5,153.8H3.9c-1.4,0-2.6,1.2-2.6,2.6c0,1.4,1.2,2.6,2.6,2.6h36.6c1.4,0,2.6-1.2,2.6-2.6
		C43.2,155,42,153.8,40.5,153.8L40.5,153.8z M40.5,153.8"/>
	<path class="st0" d="M155.7,153.8h-41.9c-1.4,0-2.6,1.2-2.6,2.6c0,1.4,1.2,2.6,2.6,2.6h41.9c1.4,0,2.6-1.2,2.6-2.6
		C158.3,155,157.1,153.8,155.7,153.8L155.7,153.8z M155.7,153.8"/>
	<path class="st0" d="M87.7,153.8H51c-1.4,0-2.6,1.2-2.6,2.6c0,1.4,1.2,2.6,2.6,2.6h36.6c1.4,0,2.6-1.2,2.6-2.6
		C90.3,155,89.1,153.8,87.7,153.8L87.7,153.8z M87.7,153.8"/>
	<path class="st0" d="M27.5,67.4c0-1.4-1.2-2.6-2.6-2.6c-1.4,0-2.6,1.2-2.6,2.6v5.2c0,1.4,1.2,2.6,2.6,2.6c1.4,0,2.6-1.2,2.6-2.6
		V67.4z M27.5,67.4"/>
	<path class="st0" d="M103.4,153.8h-5.2c-1.4,0-2.6,1.2-2.6,2.6c0,1.4,1.2,2.6,2.6,2.6h5.2c1.4,0,2.6-1.2,2.6-2.6
		C106,155,104.8,153.8,103.4,153.8L103.4,153.8z M103.4,153.8"/>
	<path class="st0" d="M17,83.1c0-1.4-1.2-2.6-2.6-2.6c-1.4,0-2.6,1.2-2.6,2.6v5.2c0,1.4,1.2,2.6,2.6,2.6c1.4,0,2.6-1.2,2.6-2.6V83.1
		z M17,83.1"/>
	<path class="st0" d="M53.6,119.8c0,1.4,1.2,2.6,2.6,2.6c1.4,0,2.6-1.2,2.6-2.6v-5.2c0-1.4-1.2-2.6-2.6-2.6c-1.4,0-2.6,1.2-2.6,2.6
		V119.8z M53.6,119.8"/>
	<path class="st0" d="M17,98.8c0-1.4-1.2-2.6-2.6-2.6c-1.4,0-2.6,1.2-2.6,2.6v5.2c0,1.4,1.2,2.6,2.6,2.6c1.4,0,2.6-1.2,2.6-2.6V98.8
		z M17,98.8"/>
	<path class="st0" d="M17,114.6c0-1.4-1.2-2.6-2.6-2.6c-1.4,0-2.6,1.2-2.6,2.6v5.2c0,1.4,1.2,2.6,2.6,2.6c1.4,0,2.6-1.2,2.6-2.6
		V114.6z M17,114.6"/>
	<path class="st0" d="M14.4,127.6c-1.4,0-2.6,1.2-2.6,2.6v5.2c0,1.4,1.2,2.6,2.6,2.6c1.4,0,2.6-1.2,2.6-2.6v-5.2
		C17,128.8,15.8,127.6,14.4,127.6L14.4,127.6z M14.4,127.6"/>
	<path class="st0" d="M56.2,91c1.4,0,2.6-1.2,2.6-2.6v-5.2c0-1.4-1.2-2.6-2.6-2.6c-1.4,0-2.6,1.2-2.6,2.6v5.2
		C53.6,89.8,54.8,91,56.2,91L56.2,91z M56.2,91"/>
	<path class="st0" d="M17,67.4c0-1.4-1.2-2.6-2.6-2.6c-1.4,0-2.6,1.2-2.6,2.6v5.2c0,1.4,1.2,2.6,2.6,2.6c1.4,0,2.6-1.2,2.6-2.6V67.4
		z M17,67.4"/>
	<path class="st0" d="M53.6,104.1c0,1.4,1.2,2.6,2.6,2.6c1.4,0,2.6-1.2,2.6-2.6v-5.2c0-1.4-1.2-2.6-2.6-2.6c-1.4,0-2.6,1.2-2.6,2.6
		V104.1z M53.6,104.1"/>
</g>
</svg>
