<?xml version="1.0" encoding="utf-8"?>
<!-- Generator: Adobe Illustrator 21.0.0, SVG Export Plug-In . SVG Version: 6.00 Build 0)  -->
<svg version="1.1" id="Layer_1" xmlns="http://www.w3.org/2000/svg" xmlns:xlink="http://www.w3.org/1999/xlink" x="0px" y="0px"
	 viewBox="0 0 140 35" style="enable-background:new 0 0 140 35;" xml:space="preserve">
<style type="text/css">
	.st0{fill:#14B294;}
	.st1{fill:#11A88B;}
	.st2{fill:#FFFFFF;}
</style>
<g>
	<path class="st0" d="M36.1,17.5c0,9.2-7.5,16.7-16.7,16.7S2.8,26.7,2.8,17.5S10.2,0.8,19.5,0.8S36.1,8.3,36.1,17.5L36.1,17.5z
		 M36.1,17.5"/>
	<path class="st1" d="M15.2,25l8.6,8.6c7.1-1.9,12.4-8.4,12.4-16.1V17l-6.7-6.2L15.2,25z M15.2,25"/>
	<path class="st2" d="M19.9,21.2c0.7,0.7,0.7,2,0,2.7l-1.5,1.5c-0.7,0.7-2,0.7-2.7,0l-6.7-6.7c-0.7-0.7-0.7-2,0-2.7l1.5-1.5
		c0.7-0.7,2-0.7,2.7,0L19.9,21.2z M19.9,21.2"/>
	<path class="st2" d="M25.7,9.6c0.7-0.7,2-0.7,2.7,0l1.5,1.5c0.7,0.7,0.7,2,0,2.7L18.4,25.4c-0.7,0.7-2,0.7-2.7,0l-1.5-1.5
		c-0.7-0.7-0.7-2,0-2.7L25.7,9.6z M25.7,9.6"/>
</g>
<g>
	<path class="st2" d="M42.8,22.1h1.6v-9.2h-1.6v-2.6h10.8v4.3h-3v-1.2h-2.5v3.1h4.3v2.8h-4.3v2.8h1.8v2.6h-7.1V22.1z"/>
	<path class="st2" d="M60.2,14.1c3.3,0,5.9,2.2,5.9,5.5c0,3.3-2.6,5.4-5.9,5.4s-5.9-2.2-5.9-5.4C54.2,16.3,56.9,14.1,60.2,14.1z
		 M60.2,22.1c1.3,0,2.4-1,2.4-2.5c0-1.6-1.1-2.6-2.4-2.6c-1.3,0-2.4,1-2.4,2.6C57.8,21.1,58.9,22.1,60.2,22.1z"/>
	<path class="st2" d="M67.4,22.2h1.4v-4.9c0-0.3-0.2-0.4-0.4-0.4h-1v-2.5h3.3c1,0,1.5,0.4,1.5,1.3v0.5c0,0.3,0,0.5,0,0.5h0
		c0.4-1.4,1.8-2.6,3.3-2.6c0.2,0,0.4,0,0.4,0v3.5c0,0-0.3-0.1-0.7-0.1c-1.9,0-2.9,1.2-2.9,3.1v1.5h1.4v2.5h-6.4V22.2z"/>
	<path class="st2" d="M77.1,22.2h1.3v-5c0-0.3-0.2-0.4-0.4-0.4h-1v-2.5h3.3c1,0,1.5,0.5,1.5,1.2v0.3c0,0.1,0,0.2,0,0.2h0
		c0.5-0.8,1.5-2,3.3-2c1.1,0,2.2,0.5,2.7,2h0c0.6-1.1,1.8-2,3.5-2c1.8,0,3.3,1,3.3,3.9v4.2H96v2.5h-4.8v-6.2c0-0.8-0.1-1.3-0.8-1.3
		c-1.5,0-2,1.4-2,3.2v1.8h1.3v2.5h-4.8v-6.2c0-0.8-0.1-1.3-0.8-1.3c-1.6,0-2,1.7-2,3.4v1.6h1.3v2.5h-6.2V22.2z"/>
	<path class="st2" d="M104.7,10c2.6,0,5.8,1,5.8,2.8v2.4h-3.2v-1.1c0-0.7-1.1-1.1-2.4-1.1c-2.6,0-4.2,1.5-4.2,4.2s1.6,4.7,4.4,4.7
		c1,0,2.5-0.2,2.5-1.1v-1h-2.3v-2.6h5.6v4.8c0,2.2-4.1,2.9-6.2,2.9c-4.5,0-7.7-3.2-7.7-7.6S100.2,10,104.7,10z"/>
	<path class="st2" d="M117.8,14.1c3.1,0,4.9,2.2,4.9,5.1c0,0.3-0.1,1.1-0.1,1.1H116c0.3,1.3,1.3,1.9,2.4,1.9c1.5,0,2.9-1,2.9-1
		l1.3,2.4c0,0-1.7,1.5-4.5,1.5c-3.7,0-5.7-2.7-5.7-5.5C112.4,16.5,114.4,14.1,117.8,14.1z M119,18.2c0-0.8-0.5-1.5-1.3-1.5
		c-1,0-1.5,0.7-1.7,1.5H119z"/>
	<path class="st2" d="M124.1,22.2h1.3v-4.9c0-0.3-0.2-0.4-0.4-0.4h-1v-2.5h3.3c1,0,1.4,0.5,1.4,1.2v0.3c0,0.1,0,0.2,0,0.2h0
		c0,0,0.9-2,3.6-2c2,0,3.5,1,3.5,3.9v4.2h1.3v2.5h-4.8v-6.1c0-1-0.4-1.4-1.2-1.4c-1.6,0-2.3,1.6-2.3,3.1v1.9h1.3v2.5h-6.2V22.2z"/>
</g>
</svg>
