<?xml version="1.0" encoding="utf-8"?>
<!-- Generator: Adobe Illustrator 21.0.0, SVG Export Plug-In . SVG Version: 6.00 Build 0)  -->
<svg version="1.1" id="Layer_1" xmlns="http://www.w3.org/2000/svg" xmlns:xlink="http://www.w3.org/1999/xlink" x="0px" y="0px"
	 viewBox="0 0 24 24" style="enable-background:new 0 0 24 24;" xml:space="preserve">
<style type="text/css">
	.st0{fill:#FFFFFF;}
</style>
<g>
	<path class="st0" d="M3.4,17.1c-1.9,0-3.4,1.5-3.4,3.4C0,22.5,1.5,24,3.4,24c1.9,0,3.4-1.5,3.4-3.4C6.9,18.7,5.3,17.1,3.4,17.1
		L3.4,17.1z M3.4,23.1c-1.4,0-2.6-1.2-2.6-2.6C0.9,19.2,2,18,3.4,18C4.8,18,6,19.2,6,20.6C6,22,4.8,23.1,3.4,23.1L3.4,23.1z
		 M3.4,23.1"/>
	<path class="st0" d="M12,17.1c-1.9,0-3.4,1.5-3.4,3.4c0,1.9,1.5,3.4,3.4,3.4c1.9,0,3.4-1.5,3.4-3.4C15.4,18.7,13.9,17.1,12,17.1
		L12,17.1z M12,23.1c-1.4,0-2.6-1.2-2.6-2.6c0-1.4,1.2-2.6,2.6-2.6c1.4,0,2.6,1.2,2.6,2.6C14.6,22,13.4,23.1,12,23.1L12,23.1z
		 M12,23.1"/>
	<path class="st0" d="M20.6,17.1c-1.9,0-3.4,1.5-3.4,3.4c0,1.9,1.5,3.4,3.4,3.4c1.9,0,3.4-1.5,3.4-3.4C24,18.7,22.5,17.1,20.6,17.1
		L20.6,17.1z M20.6,23.1c-1.4,0-2.6-1.2-2.6-2.6c0-1.4,1.2-2.6,2.6-2.6c1.4,0,2.6,1.2,2.6,2.6C23.1,22,22,23.1,20.6,23.1L20.6,23.1z
		 M20.6,23.1"/>
	<path class="st0" d="M3.4,8.6C1.5,8.6,0,10.1,0,12c0,1.9,1.5,3.4,3.4,3.4c1.9,0,3.4-1.5,3.4-3.4C6.9,10.1,5.3,8.6,3.4,8.6L3.4,8.6z
		 M3.4,14.6c-1.4,0-2.6-1.2-2.6-2.6c0-1.4,1.2-2.6,2.6-2.6C4.8,9.4,6,10.6,6,12C6,13.4,4.8,14.6,3.4,14.6L3.4,14.6z M3.4,14.6"/>
	<path class="st0" d="M12,8.6c-1.9,0-3.4,1.5-3.4,3.4c0,1.9,1.5,3.4,3.4,3.4c1.9,0,3.4-1.5,3.4-3.4C15.4,10.1,13.9,8.6,12,8.6
		L12,8.6z M12,14.6c-1.4,0-2.6-1.2-2.6-2.6c0-1.4,1.2-2.6,2.6-2.6c1.4,0,2.6,1.2,2.6,2.6C14.6,13.4,13.4,14.6,12,14.6L12,14.6z
		 M12,14.6"/>
	<path class="st0" d="M20.6,8.6c-1.9,0-3.4,1.5-3.4,3.4c0,1.9,1.5,3.4,3.4,3.4c1.9,0,3.4-1.5,3.4-3.4C24,10.1,22.5,8.6,20.6,8.6
		L20.6,8.6z M20.6,14.6c-1.4,0-2.6-1.2-2.6-2.6c0-1.4,1.2-2.6,2.6-2.6c1.4,0,2.6,1.2,2.6,2.6C23.1,13.4,22,14.6,20.6,14.6L20.6,14.6
		z M20.6,14.6"/>
	<path class="st0" d="M3.4,0C1.5,0,0,1.5,0,3.4c0,1.9,1.5,3.4,3.4,3.4c1.9,0,3.4-1.5,3.4-3.4C6.9,1.5,5.3,0,3.4,0L3.4,0z M3.4,6
		C2,6,0.9,4.8,0.9,3.4C0.9,2,2,0.9,3.4,0.9C4.8,0.9,6,2,6,3.4C6,4.8,4.8,6,3.4,6L3.4,6z M3.4,6"/>
	<path class="st0" d="M12,0c-1.9,0-3.4,1.5-3.4,3.4c0,1.9,1.5,3.4,3.4,3.4c1.9,0,3.4-1.5,3.4-3.4C15.4,1.5,13.9,0,12,0L12,0z M12,6
		c-1.4,0-2.6-1.2-2.6-2.6c0-1.4,1.2-2.6,2.6-2.6c1.4,0,2.6,1.2,2.6,2.6C14.6,4.8,13.4,6,12,6L12,6z M12,6"/>
	<path class="st0" d="M20.6,6.9c1.9,0,3.4-1.5,3.4-3.4C24,1.5,22.5,0,20.6,0c-1.9,0-3.4,1.5-3.4,3.4C17.1,5.3,18.7,6.9,20.6,6.9
		L20.6,6.9z M20.6,0.9c1.4,0,2.6,1.2,2.6,2.6C23.1,4.8,22,6,20.6,6C19.2,6,18,4.8,18,3.4C18,2,19.2,0.9,20.6,0.9L20.6,0.9z
		 M20.6,0.9"/>
</g>
</svg>
