<?xml version="1.0" encoding="utf-8"?>
<!-- Generator: Adobe Illustrator 21.0.0, SVG Export Plug-In . SVG Version: 6.00 Build 0)  -->
<svg version="1.1" id="Layer_1" xmlns="http://www.w3.org/2000/svg" xmlns:xlink="http://www.w3.org/1999/xlink" x="0px" y="0px"
	 viewBox="0 0 160 160" style="enable-background:new 0 0 160 160;" xml:space="preserve">
<style type="text/css">
	.st0{fill:#D2D2D2;}
</style>
<g>
	<g>
		<path class="st0" d="M32.9,149.5c-17.5,0-31.8-14.2-31.8-31.8C1.2,100.2,15.4,86,32.9,86c11.2,0,21.7,6,27.4,15.7
			c1.3,2.1,0.5,4.9-1.6,6.2c-2.1,1.3-4.9,0.5-6.2-1.6C48.5,99.3,41,95,32.9,95c-12.5,0-22.7,10.2-22.7,22.7s10.2,22.7,22.7,22.7
			c7.9,0,15.1-4,19.3-10.7c1.3-2.1,4.1-2.8,6.2-1.4c2.1,1.3,2.8,4.1,1.4,6.2C54,143.9,43.9,149.5,32.9,149.5z"/>
		<path class="st0" d="M155.5,112.4H80.1c-2.5,0-4.5-2-4.5-4.5s2-4.5,4.5-4.5h75.4c2.5,0,4.5,2,4.5,4.5S158,112.4,155.5,112.4z"/>
		<path class="st0" d="M127.2,132.2H80.1c-2.5,0-4.5-2-4.5-4.5c0-2.5,2-4.5,4.5-4.5h47.1c2.5,0,4.5,2,4.5,4.5
			C131.7,130.1,129.7,132.2,127.2,132.2z"/>
	</g>
	<g>
		<path class="st0" d="M32.9,74.4c-17.5,0-31.8-14.2-31.8-31.8c0-17.5,14.2-31.8,31.8-31.8s31.8,14.2,31.8,31.8
			C64.7,60.1,50.4,74.4,32.9,74.4z M32.9,19.9c-12.5,0-22.7,10.2-22.7,22.7s10.2,22.7,22.7,22.7s22.7-10.2,22.7-22.7
			S45.5,19.9,32.9,19.9z"/>
		<path class="st0" d="M155.5,37.2H80.1c-2.5,0-4.5-2-4.5-4.5s2-4.5,4.5-4.5h75.4c2.5,0,4.5,2,4.5,4.5S158,37.2,155.5,37.2z"/>
		<path class="st0" d="M127.2,57H80.1c-2.5,0-4.5-2-4.5-4.5c0-2.5,2-4.5,4.5-4.5h47.1c2.5,0,4.5,2,4.5,4.5
			C131.7,55,129.7,57,127.2,57z"/>
	</g>
</g>
</svg>
